<svg width="512" height="512" viewBox="0 0 512 512" fill="none" xmlns="http://www.w3.org/2000/svg">
<path d="M465.254 108.49C435.352 66.146 393.988 34.209 345.635 16.133C341.758 14.684 337.435 16.652 335.984 20.531C334.534 24.411 336.504 28.732 340.383 30.182C385.902 47.199 424.845 77.269 453.001 117.141C481.785 157.903 497 205.919 497 256C497 287.054 491.181 317.278 479.703 345.833C478.158 349.676 480.021 354.044 483.865 355.589C484.782 355.958 485.728 356.132 486.66 356.132C489.632 356.132 492.444 354.353 493.621 351.427C505.816 321.085 512 288.979 512 256C512 202.803 495.836 151.795 465.254 108.49Z" fill="url(#paint0_linear)"/>
<path d="M465.254 108.49C435.352 66.146 393.988 34.209 345.635 16.133C341.758 14.684 337.435 16.652 335.984 20.531C334.534 24.411 336.504 28.732 340.383 30.182C385.902 47.199 424.845 77.269 453.001 117.141C481.785 157.903 497 205.919 497 256C497 287.054 491.181 317.278 479.703 345.833C478.158 349.676 480.021 354.044 483.865 355.589C484.782 355.958 485.728 356.132 486.66 356.132C489.632 356.132 492.444 354.353 493.621 351.427C505.816 321.085 512 288.979 512 256C512 202.803 495.836 151.795 465.254 108.49Z" fill="url(#paint1_linear)"/>
<path d="M465.254 108.49C435.352 66.146 393.988 34.209 345.635 16.133C341.758 14.684 337.435 16.652 335.984 20.531C334.534 24.411 336.504 28.732 340.383 30.182C385.902 47.199 424.845 77.269 453.001 117.141C481.785 157.903 497 205.919 497 256C497 287.054 491.181 317.278 479.703 345.833C478.158 349.676 480.021 354.044 483.865 355.589C484.782 355.958 485.728 356.132 486.66 356.132C489.632 356.132 492.444 354.353 493.621 351.427C505.816 321.085 512 288.979 512 256C512 202.803 495.836 151.795 465.254 108.49Z" fill="#502EC2"/>
<path d="M457.572 401.554C454.289 399.025 449.58 399.639 447.054 402.919C438.759 413.688 429.491 423.826 419.506 433.051C416.464 435.862 416.277 440.607 419.087 443.65C420.566 445.25 422.578 446.06 424.598 446.06C426.418 446.06 428.244 445.401 429.686 444.069C440.288 434.273 450.129 423.508 458.937 412.073C461.466 408.791 460.854 404.081 457.572 401.554Z" fill="url(#paint2_linear)"/>
<path d="M457.572 401.554C454.289 399.025 449.58 399.639 447.054 402.919C438.759 413.688 429.491 423.826 419.506 433.051C416.464 435.862 416.277 440.607 419.087 443.65C420.566 445.25 422.578 446.06 424.598 446.06C426.418 446.06 428.244 445.401 429.686 444.069C440.288 434.273 450.129 423.508 458.937 412.073C461.466 408.791 460.854 404.081 457.572 401.554Z" fill="url(#paint3_linear)"/>
<path d="M457.572 401.554C454.289 399.025 449.58 399.639 447.054 402.919C438.759 413.688 429.491 423.826 419.506 433.051C416.464 435.862 416.277 440.607 419.087 443.65C420.566 445.25 422.578 446.06 424.598 446.06C426.418 446.06 428.244 445.401 429.686 444.069C440.288 434.273 450.129 423.508 458.937 412.073C461.466 408.791 460.854 404.081 457.572 401.554Z" fill="#502EC2"/>
<path d="M371.706 467.46C336.466 486.786 296.455 497 256 497C191.627 497 131.106 471.932 85.588 426.413C82.658 423.484 77.91 423.484 74.981 426.413C72.052 429.342 72.052 434.091 74.981 437.019C123.333 485.371 187.62 512 256 512C298.969 512 341.474 501.146 378.919 480.613C382.551 478.621 383.88 474.063 381.889 470.431C379.896 466.798 375.34 465.468 371.706 467.46Z" fill="url(#paint4_linear)"/>
<path d="M371.706 467.46C336.466 486.786 296.455 497 256 497C191.627 497 131.106 471.932 85.588 426.413C82.658 423.484 77.91 423.484 74.981 426.413C72.052 429.342 72.052 434.091 74.981 437.019C123.333 485.371 187.62 512 256 512C298.969 512 341.474 501.146 378.919 480.613C382.551 478.621 383.88 474.063 381.889 470.431C379.896 466.798 375.34 465.468 371.706 467.46Z" fill="url(#paint5_linear)"/>
<path d="M371.706 467.46C336.466 486.786 296.455 497 256 497C191.627 497 131.106 471.932 85.588 426.413C82.658 423.484 77.91 423.484 74.981 426.413C72.052 429.342 72.052 434.091 74.981 437.019C123.333 485.371 187.62 512 256 512C298.969 512 341.474 501.146 378.919 480.613C382.551 478.621 383.88 474.063 381.889 470.431C379.896 466.798 375.34 465.468 371.706 467.46Z" fill="#502EC2"/>
<path d="M15 256C15 191.626 40.068 131.106 85.587 85.587C131.105 40.068 191.626 15 256 15C260.143 15 263.5 11.642 263.5 7.5C263.5 3.358 260.143 0 256 0C187.62 0 123.332 26.628 74.98 74.98C26.628 123.332 0 187.62 0 256C0 287.221 5.559 317.727 16.522 346.669C17.658 349.668 20.509 351.514 23.537 351.514C24.42 351.514 25.318 351.357 26.193 351.026C30.066 349.559 32.017 345.229 30.549 341.356C20.231 314.117 15 285.399 15 256Z" fill="url(#paint6_linear)"/>
<path d="M15 256C15 191.626 40.068 131.106 85.587 85.587C131.105 40.068 191.626 15 256 15C260.143 15 263.5 11.642 263.5 7.5C263.5 3.358 260.143 0 256 0C187.62 0 123.332 26.628 74.98 74.98C26.628 123.332 0 187.62 0 256C0 287.221 5.559 317.727 16.522 346.669C17.658 349.668 20.509 351.514 23.537 351.514C24.42 351.514 25.318 351.357 26.193 351.026C30.066 349.559 32.017 345.229 30.549 341.356C20.231 314.117 15 285.399 15 256Z" fill="url(#paint7_linear)"/>
<path d="M15 256C15 191.626 40.068 131.106 85.587 85.587C131.105 40.068 191.626 15 256 15C260.143 15 263.5 11.642 263.5 7.5C263.5 3.358 260.143 0 256 0C187.62 0 123.332 26.628 74.98 74.98C26.628 123.332 0 187.62 0 256C0 287.221 5.559 317.727 16.522 346.669C17.658 349.668 20.509 351.514 23.537 351.514C24.42 351.514 25.318 351.357 26.193 351.026C30.066 349.559 32.017 345.229 30.549 341.356C20.231 314.117 15 285.399 15 256Z" fill="#502EC2"/>
<path d="M356.272 68.038C325.636 51.661 290.962 43.004 256 43.004C218.727 43.004 182.045 52.775 149.92 71.259C118.764 89.186 92.435 114.912 73.779 145.655C71.631 149.196 72.759 153.809 76.3 155.957C77.516 156.695 78.858 157.046 80.184 157.046C82.718 157.046 85.192 155.761 86.603 153.436C103.949 124.85 128.43 100.93 157.401 84.26C187.253 67.084 221.349 58.004 256 58.004C288.504 58.004 320.732 66.048 349.2 81.266C352.853 83.219 357.398 81.84 359.35 78.187C361.304 74.535 359.925 69.99 356.272 68.038Z" fill="url(#paint8_linear)"/>
<path d="M356.272 68.038C325.636 51.661 290.962 43.004 256 43.004C218.727 43.004 182.045 52.775 149.92 71.259C118.764 89.186 92.435 114.912 73.779 145.655C71.631 149.196 72.759 153.809 76.3 155.957C77.516 156.695 78.858 157.046 80.184 157.046C82.718 157.046 85.192 155.761 86.603 153.436C103.949 124.85 128.43 100.93 157.401 84.26C187.253 67.084 221.349 58.004 256 58.004C288.504 58.004 320.732 66.048 349.2 81.266C352.853 83.219 357.398 81.84 359.35 78.187C361.304 74.535 359.925 69.99 356.272 68.038Z" fill="url(#paint9_linear)"/>
<path d="M356.272 68.038C325.636 51.661 290.962 43.004 256 43.004C218.727 43.004 182.045 52.775 149.92 71.259C118.764 89.186 92.435 114.912 73.779 145.655C71.631 149.196 72.759 153.809 76.3 155.957C77.516 156.695 78.858 157.046 80.184 157.046C82.718 157.046 85.192 155.761 86.603 153.436C103.949 124.85 128.43 100.93 157.401 84.26C187.253 67.084 221.349 58.004 256 58.004C288.504 58.004 320.732 66.048 349.2 81.266C352.853 83.219 357.398 81.84 359.35 78.187C361.304 74.535 359.925 69.99 356.272 68.038Z" fill="#502EC2"/>
<path d="M410.863 120.71C407.648 123.322 407.158 128.045 409.77 131.26C438.29 166.373 453.996 210.673 453.996 255.999C453.996 299.435 440.197 340.662 414.092 375.222C388.828 408.667 352.931 433.684 313.012 445.666C309.045 446.857 306.794 451.039 307.985 455.006C308.961 458.254 311.94 460.352 315.166 460.352C315.88 460.352 316.606 460.249 317.325 460.034C360.274 447.142 398.891 420.234 426.061 384.264C454.15 347.078 468.997 302.725 468.997 256C468.997 207.24 452.099 159.582 421.414 121.804C418.802 118.589 414.08 118.099 410.863 120.71Z" fill="url(#paint10_linear)"/>
<path d="M410.863 120.71C407.648 123.322 407.158 128.045 409.77 131.26C438.29 166.373 453.996 210.673 453.996 255.999C453.996 299.435 440.197 340.662 414.092 375.222C388.828 408.667 352.931 433.684 313.012 445.666C309.045 446.857 306.794 451.039 307.985 455.006C308.961 458.254 311.94 460.352 315.166 460.352C315.88 460.352 316.606 460.249 317.325 460.034C360.274 447.142 398.891 420.234 426.061 384.264C454.15 347.078 468.997 302.725 468.997 256C468.997 207.24 452.099 159.582 421.414 121.804C418.802 118.589 414.08 118.099 410.863 120.71Z" fill="url(#paint11_linear)"/>
<path d="M410.863 120.71C407.648 123.322 407.158 128.045 409.77 131.26C438.29 166.373 453.996 210.673 453.996 255.999C453.996 299.435 440.197 340.662 414.092 375.222C388.828 408.667 352.931 433.684 313.012 445.666C309.045 446.857 306.794 451.039 307.985 455.006C308.961 458.254 311.94 460.352 315.166 460.352C315.88 460.352 316.606 460.249 317.325 460.034C360.274 447.142 398.891 420.234 426.061 384.264C454.15 347.078 468.997 302.725 468.997 256C468.997 207.24 452.099 159.582 421.414 121.804C418.802 118.589 414.08 118.099 410.863 120.71Z" fill="#502EC2"/>
<path d="M256 468.996C260.143 468.996 263.5 465.638 263.5 461.496C263.5 457.354 260.143 453.996 256 453.996C146.824 453.996 58.004 365.176 58.004 256C58.004 244.906 58.929 233.777 60.754 222.922C61.441 218.837 58.686 214.969 54.601 214.282C50.517 213.597 46.648 216.35 45.961 220.435C43.999 232.109 43.004 244.075 43.004 255.999C43.004 373.446 138.554 468.996 256 468.996Z" fill="url(#paint12_linear)"/>
<path d="M256 468.996C260.143 468.996 263.5 465.638 263.5 461.496C263.5 457.354 260.143 453.996 256 453.996C146.824 453.996 58.004 365.176 58.004 256C58.004 244.906 58.929 233.777 60.754 222.922C61.441 218.837 58.686 214.969 54.601 214.282C50.517 213.597 46.648 216.35 45.961 220.435C43.999 232.109 43.004 244.075 43.004 255.999C43.004 373.446 138.554 468.996 256 468.996Z" fill="url(#paint13_linear)"/>
<path d="M256 468.996C260.143 468.996 263.5 465.638 263.5 461.496C263.5 457.354 260.143 453.996 256 453.996C146.824 453.996 58.004 365.176 58.004 256C58.004 244.906 58.929 233.777 60.754 222.922C61.441 218.837 58.686 214.969 54.601 214.282C50.517 213.597 46.648 216.35 45.961 220.435C43.999 232.109 43.004 244.075 43.004 255.999C43.004 373.446 138.554 468.996 256 468.996Z" fill="#502EC2"/>
<mask id="mask0" mask-type="alpha" maskUnits="userSpaceOnUse" x="88" y="88" width="336" height="336">
<circle cx="256" cy="256" r="168" fill="white"/>
</mask>
<g mask="url(#mask0)">
<path fill-rule="evenodd" clip-rule="evenodd" d="M29 15H471C482.046 15 491 23.9543 491 35V477C491 488.046 482.046 497 471 497H29C17.9543 497 9 488.046 9 477V35C9 23.9543 17.9543 15 29 15ZM188.842 326.009C208.503 329.16 225.495 329.888 240.787 329.888C292.731 329.888 322.102 296.916 322.102 248.67C322.102 219.577 306.81 206.485 282.051 206.485C270.4 206.485 260.205 210.122 250.011 216.91L249.282 216.668C250.016 214.348 252.365 201.098 256.331 176.917C256.794 174.094 257.279 171.121 257.786 168L211.32 173.987L188.842 326.009Z" fill="#502EC2"/>
<path fill-rule="evenodd" clip-rule="evenodd" d="M273.798 265.883C273.82 265.639 273.843 265.396 273.865 265.156C274.083 262.774 274.284 260.592 274.284 258.61C274.284 247.458 269.186 243.579 260.933 243.579C256.079 243.579 250.011 246.73 245.641 249.882L239.33 292.794C243.214 293.522 246.37 293.764 249.525 293.764C264.332 293.764 270.885 284.066 273.798 265.883Z" fill="#502EC2"/>
</g>
<defs>
<linearGradient id="paint0_linear" x1="256" y1="-1.69315e-06" x2="256" y2="512" gradientUnits="userSpaceOnUse">
<stop stop-color="#0FAEFF"/>
<stop offset="1" stop-color="#5024C5"/>
</linearGradient>
<linearGradient id="paint1_linear" x1="256" y1="0" x2="256" y2="512" gradientUnits="userSpaceOnUse">
<stop stop-color="#682ED6"/>
<stop offset="1" stop-color="#3015AD"/>
</linearGradient>
<linearGradient id="paint2_linear" x1="256" y1="-1.69315e-06" x2="256" y2="512" gradientUnits="userSpaceOnUse">
<stop stop-color="#0FAEFF"/>
<stop offset="1" stop-color="#5024C5"/>
</linearGradient>
<linearGradient id="paint3_linear" x1="256" y1="0" x2="256" y2="512" gradientUnits="userSpaceOnUse">
<stop stop-color="#682ED6"/>
<stop offset="1" stop-color="#3015AD"/>
</linearGradient>
<linearGradient id="paint4_linear" x1="256" y1="-1.69315e-06" x2="256" y2="512" gradientUnits="userSpaceOnUse">
<stop stop-color="#0FAEFF"/>
<stop offset="1" stop-color="#5024C5"/>
</linearGradient>
<linearGradient id="paint5_linear" x1="256" y1="0" x2="256" y2="512" gradientUnits="userSpaceOnUse">
<stop stop-color="#682ED6"/>
<stop offset="1" stop-color="#3015AD"/>
</linearGradient>
<linearGradient id="paint6_linear" x1="256" y1="-1.69315e-06" x2="256" y2="512" gradientUnits="userSpaceOnUse">
<stop stop-color="#0FAEFF"/>
<stop offset="1" stop-color="#5024C5"/>
</linearGradient>
<linearGradient id="paint7_linear" x1="256" y1="0" x2="256" y2="512" gradientUnits="userSpaceOnUse">
<stop stop-color="#682ED6"/>
<stop offset="1" stop-color="#3015AD"/>
</linearGradient>
<linearGradient id="paint8_linear" x1="256" y1="-1.69315e-06" x2="256" y2="512" gradientUnits="userSpaceOnUse">
<stop stop-color="#0FAEFF"/>
<stop offset="1" stop-color="#5024C5"/>
</linearGradient>
<linearGradient id="paint9_linear" x1="256" y1="0" x2="256" y2="512" gradientUnits="userSpaceOnUse">
<stop stop-color="#682ED6"/>
<stop offset="1" stop-color="#3015AD"/>
</linearGradient>
<linearGradient id="paint10_linear" x1="256" y1="-1.69315e-06" x2="256" y2="512" gradientUnits="userSpaceOnUse">
<stop stop-color="#0FAEFF"/>
<stop offset="1" stop-color="#5024C5"/>
</linearGradient>
<linearGradient id="paint11_linear" x1="256" y1="0" x2="256" y2="512" gradientUnits="userSpaceOnUse">
<stop stop-color="#682ED6"/>
<stop offset="1" stop-color="#3015AD"/>
</linearGradient>
<linearGradient id="paint12_linear" x1="256" y1="-1.69315e-06" x2="256" y2="512" gradientUnits="userSpaceOnUse">
<stop stop-color="#0FAEFF"/>
<stop offset="1" stop-color="#5024C5"/>
</linearGradient>
<linearGradient id="paint13_linear" x1="256" y1="0" x2="256" y2="512" gradientUnits="userSpaceOnUse">
<stop stop-color="#682ED6"/>
<stop offset="1" stop-color="#3015AD"/>
</linearGradient>
</defs>
</svg>
