<?xml version="1.0" encoding="iso-8859-1"?>
<!-- Generator: Adobe Illustrator 19.0.0, SVG Export Plug-In . SVG Version: 6.00 Build 0)  -->
<svg version="1.1" id="Capa_1" xmlns="http://www.w3.org/2000/svg" xmlns:xlink="http://www.w3.org/1999/xlink" x="0px" y="0px"
	 viewBox="0 0 511.998 511.998" style="enable-background:new 0 0 511.998 511.998;" xml:space="preserve">
<g>
	<g>
		<path d="M509.502,25.737L486.214,2.449c-3.2-3.2-8.866-3.2-12.066,0l-63.898,63.906c-10.027-9.344-25.737-9.207-35.507,0.563
			l-5.282,5.274c-12.672-11.836-29.065-18.389-46.498-18.389c-18.227,0-35.371,7.1-48.256,19.994l-50.935,50.935
			c-1.604,1.604-2.5,3.763-2.5,6.033c0,2.27,0.896,4.437,2.5,6.033l151.39,151.39c1.664,1.664,3.849,2.5,6.033,2.5
			c2.185,0,4.369-0.836,6.033-2.5l50.935-50.935c26.044-26.044,26.522-68.036,1.596-94.754l5.274-5.274
			c9.771-9.771,9.916-25.481,0.563-35.507l63.906-63.906C512.83,34.475,512.83,29.073,509.502,25.737z M369.752,130.97
			c-1.664,1.664-3.849,2.5-6.033,2.5c-2.185,0-4.369-0.836-6.033-2.5l-23.296-23.305c-6.298-6.298-16.546-6.298-22.852,0
			l-23.296,23.305c-3.328,3.336-8.73,3.336-12.066,0c-3.337-3.337-3.336-8.73,0-12.066l23.296-23.305
			c12.954-12.954,34.022-12.954,46.985,0l23.296,23.305C373.088,122.24,373.088,127.642,369.752,130.97z M432.958,125.15
			l-5.188,5.188l-14.507-14.498l-31.659-31.667l5.197-5.188c3.319-3.311,8.73-3.328,12.066,0l5.402,5.402v0.009l23.287,23.287
			c0,0,0.009,0.009,0.017,0.009l5.385,5.393C436.286,116.412,436.286,121.822,432.958,125.15z"/>
	</g>
</g>
<g>
	<g>
		<path d="M328.996,264.474c-9.754-9.754-25.609-9.762-35.362,0l-46.37,46.37l-46.157-46.165l46.37-46.362
			c4.727-4.727,7.322-10.999,7.322-17.681c0-6.682-2.603-12.962-7.322-17.672c-9.446-9.446-25.916-9.455-35.362,0l-46.37,46.362
			l-17.254-17.254c-3.2-3.2-8.866-3.2-12.066,0l-62.583,62.583c-26.044,26.044-26.522,68.036-1.596,94.754l-5.274,5.274
			c-9.771,9.771-9.916,25.481-0.563,35.507L2.502,474.095c-3.336,3.337-3.336,8.73,0,12.066l23.287,23.287
			c1.604,1.604,3.772,2.5,6.033,2.5c2.261,0,4.437-0.896,6.033-2.5l63.898-63.906c4.907,4.574,11.136,6.921,17.408,6.921
			c6.554,0,13.107-2.492,18.099-7.484l5.282-5.274c12.681,11.836,29.065,18.398,46.498,18.398c18.227,0,35.371-7.1,48.256-19.994
			l62.575-62.583c3.337-3.337,3.337-8.73,0-12.066l-17.254-17.254l46.379-46.37C338.741,290.082,338.741,274.227,328.996,264.474z
			 M224.19,195.021c2.995-3.004,8.218-3.004,11.221,0.008c1.493,1.493,2.321,3.482,2.321,5.598c0,2.125-0.828,4.113-2.321,5.615
			l-46.37,46.362l-11.221-11.221L224.19,195.021z M125.195,432.913c-3.328,3.311-8.738,3.328-12.066,0l-5.393-5.402
			c0,0,0-0.009-0.008-0.009L84.44,404.215l-0.009-0.009l-5.393-5.393c-3.328-3.328-3.328-8.738,0-12.066l5.188-5.188l14.498,14.498
			l31.659,31.667L125.195,432.913z M253.297,375.526l-46.583,46.583c-1.664,1.664-3.849,2.5-6.033,2.5
			c-2.185,0-4.369-0.836-6.033-2.5L89.841,317.303c-3.336-3.337-3.336-8.73,0-12.066l46.583-46.583c3.337-3.336,8.73-3.336,12.066,0
			L253.297,363.46C256.634,366.788,256.634,372.19,253.297,375.526z M316.93,287.77l-46.37,46.37l-11.221-11.221l46.37-46.37
			c3.004-3.004,8.226-3.004,11.221,0C320.019,279.629,320.019,284.672,316.93,287.77z"/>
	</g>
</g>
<g>
	<g>
		<path d="M142.458,276.745l-34.517,34.517l92.74,92.74l34.517-34.517L142.458,276.745z M195.066,363.887
			c-1.664,1.664-3.849,2.5-6.033,2.5c-2.185,0-4.369-0.836-6.033-2.5l-34.935-34.944c-3.328-3.337-3.328-8.738,0-12.066
			c3.337-3.336,8.73-3.336,12.066,0l34.935,34.944C198.402,355.157,198.402,360.55,195.066,363.887z"/>
	</g>
</g>
<g>
</g>
<g>
</g>
<g>
</g>
<g>
</g>
<g>
</g>
<g>
</g>
<g>
</g>
<g>
</g>
<g>
</g>
<g>
</g>
<g>
</g>
<g>
</g>
<g>
</g>
<g>
</g>
<g>
</g>
</svg>
