<svg height="414pt" viewBox="0 -18 414.22 414" width="414pt" xmlns="http://www.w3.org/2000/svg"><path d="m407.003906 292.773438v57.640624c.003906 11.035157-8.941406 19.988282-19.976562 19.988282-.003906 0-.007813 0-.011719 0h-79.957031c-11.042969 0-19.992188-8.949219-19.992188-19.988282v-57.640624c.003906-11.035157 8.953125-19.984376 19.992188-19.988282h79.957031c11.039063 0 19.988281 8.949219 19.988281 19.988282zm0 0" fill="#6fe3ff"/><path d="m346.816406 191.628906h.21875c11.253906.015625 22.027344 4.550782 29.90625 12.582032 7.964844 8.042968 12.433594 18.90625 12.433594 30.226562v37.179688l-.171875 1.289062c-.726563-.082031-1.457031-.121094-2.1875-.121094h-79.957031c-11.039063.003906-19.988282 8.953125-19.992188 19.988282v12.773437h-240.089844c-22.082031 0-39.980468-17.898437-39.980468-39.976563v-177.175781h339.820312zm0 0" fill="#e48e66"/><path d="m346.816406 47.074219v41.320312h-339.820312v-41.320312c0-22.078125 17.898437-39.976563 39.980468-39.976563h259.859376c22.082031 0 39.980468 17.898438 39.980468 39.976563zm-177.527344 1.21875c.027344-6.933594-5.578124-12.578125-12.511718-12.601563-6.9375-.023437-12.578125 5.578125-12.605469 12.511719-.023437 6.9375 5.578125 12.578125 12.515625 12.605469h.007812c6.933594.019531 12.570313-5.582032 12.59375-12.515625zm-56.410156-.179688c.027344-6.933593-5.578125-12.578125-12.511718-12.601562-6.9375-.023438-12.578126 5.578125-12.605469 12.511719-.023438 6.9375 5.578125 12.578124 12.515625 12.605468 6.933594.015625 12.570312-5.582031 12.601562-12.515625zm-56.410156-.179687c.019531-6.933594-5.585938-12.574219-12.523438-12.59375-6.933593-.015625-12.574218 5.589844-12.59375 12.523437-.015624 6.933594 5.582032 12.570313 12.515626 12.59375 6.933593.027344 12.578124-5.574219 12.601562-12.511719 0-.003906 0-.007812 0-.011718zm0 0" fill="#f8ec7d"/><g fill="#63316d"><path d="m387.027344 377.398438h-79.96875c-14.882813 0-26.988282-12.105469-26.988282-26.984376v-57.640624c.003907-14.875 12.109376-26.980469 26.984376-26.984376h79.960937c1.015625-.007812 1.980469.054688 2.964844.164063 13.691406 1.511719 24.019531 13.042969 24.019531 26.820313v57.640624c.003906 7.203126-2.800781 13.980469-7.894531 19.078126-5.09375 5.097656-11.871094 7.90625-19.078125 7.90625zm-79.96875-97.617188c-7.164063.003906-12.992188 5.832031-12.996094 12.996094v57.636718c0 7.164063 5.832031 12.992188 12.996094 12.992188h79.957031c3.476563 0 6.738281-1.351562 9.191406-3.804688 2.449219-2.453124 3.800781-5.71875 3.800781-9.183593v-57.644531c0-6.636719-4.976562-12.1875-11.570312-12.914063h-.007812c-.460938-.050781-.925782-.078125-1.390626-.078125-.003906 0-.011718 0-.015624 0zm0 0"/><path d="m389.375 278.613281c-3.867188 0-7-3.132812-7-6.996093v-37.179688c0-9.539062-3.695312-18.527344-10.40625-25.300781-6.546875-6.675781-15.628906-10.5-24.941406-10.511719h-.210938c-19.445312.207031-35.230468 16.253906-35.121094 35.769531.019532 3.863281-3.09375 7.015625-6.957031 7.039063-.015625 0-.027343 0-.042969 0-3.84375 0-6.972656-3.105469-6.992187-6.957032-.15625-27.199218 21.84375-49.554687 49.039063-49.84375h.292968c13.050782.015626 25.769532 5.367188 34.898438 14.679688 9.300781 9.390625 14.433594 21.871094 14.433594 35.125v37.179688c.003906 3.863281-3.128907 6.996093-6.992188 6.996093zm0 0"/><path d="m287.066406 312.542969h-240.089844c-25.902343 0-46.976562-21.070313-46.976562-46.972657v-218.496093c0-25.902344 21.074219-46.972657 46.976562-46.972657h259.859376c25.902343 0 46.976562 21.070313 46.976562 46.972657v144.722656c0 3.867187-3.132812 6.996094-6.996094 6.996094-3.863281 0-6.996094-3.128907-6.996094-6.996094v-144.722656c0-18.183594-14.796874-32.980469-32.984374-32.980469h-259.859376c-18.1875 0-32.984374 14.796875-32.984374 32.980469v218.496093c0 18.183594 14.796874 32.980469 32.984374 32.980469h240.089844c3.863282 0 6.996094 3.132813 6.996094 6.996094s-3.132812 6.996094-6.996094 6.996094zm0 0"/><path d="m346.816406 95.390625h-339.820312c-3.863282 0-6.996094-3.132813-6.996094-6.996094s3.132812-6.996093 6.996094-6.996093h339.820312c3.863282 0 6.996094 3.132812 6.996094 6.996093s-3.132812 6.996094-6.996094 6.996094zm0 0"/><path d="m100.324219 67.625c-.023438 0-.046875 0-.074219 0-10.78125-.039062-19.523438-8.84375-19.484375-19.625.039063-10.753906 8.808594-19.484375 19.554687-19.484375h.054688c5.21875.011719 10.125 2.054687 13.808594 5.753906 3.683594 3.703125 5.703125 8.613281 5.691406 13.835938v.035156c-.019531 5.222656-2.070312 10.125-5.777344 13.804687-3.6875 3.664063-8.578125 5.679688-13.773437 5.679688zm0-25.117188c-3.058594 0-5.554688 2.484376-5.566407 5.539063-.003906 1.488281.570313 2.886719 1.617188 3.941406 1.046875 1.054688 2.441406 1.636719 3.925781 1.640625h.023438c1.476562 0 2.867187-.570312 3.917969-1.613281 1.050781-1.042969 1.632812-2.433594 1.640624-3.914063v-.011718c.003907-1.5-.570312-2.894532-1.617187-3.945313-1.046875-1.054687-2.441406-1.632812-3.925781-1.636719-.003906 0-.007813 0-.015625 0zm12.554687 5.605469h.011719zm0 0"/><path d="m43.910156 67.453125c-.015625 0-.035156 0-.050781 0-10.785156-.027344-19.53125-8.824219-19.503906-19.609375.03125-10.761719 8.800781-19.5 19.554687-19.5h.054688c10.777344.039062 19.523437 8.832031 19.5 19.605469v.003906c-.027344 10.765625-8.796875 19.5-19.554688 19.5zm-.003906-25.117187c-3.054688 0-5.546875 2.488281-5.554688 5.550781-.011718 3.066406 2.476563 5.566406 5.542969 5.578125h.015625c3.0625 0 5.554688-2.488282 5.5625-5.546875.007813-3.066407-2.484375-5.566407-5.550781-5.578125-.003906-.003906-.007813-.003906-.015625-.003906zm12.5625 5.597656h.011719zm0 0"/><path d="m156.734375 67.804688c-.027344 0-.046875 0-.074219 0-10.78125-.039063-19.523437-8.84375-19.484375-19.625.019531-5.222657 2.070313-10.125 5.777344-13.808594 3.691406-3.660156 8.582031-5.675782 13.777344-5.675782h.070312c10.78125.035157 19.523438 8.835938 19.484375 19.617188v.007812c-.039062 10.757813-8.804687 19.484376-19.550781 19.484376zm-.003906-25.117188c-1.476563 0-2.867188.574219-3.917969 1.617188-1.054688 1.042968-1.636719 2.441406-1.644531 3.925781-.003907 1.484375.570312 2.882812 1.617187 3.9375 1.046875 1.054687 2.441406 1.640625 3.925782 1.644531h.023437c3.054687 0 5.546875-2.480469 5.558594-5.539062 0-1.503907-.570313-2.894532-1.613281-3.945313-1.046876-1.050781-2.441407-1.632813-3.925782-1.640625-.007812 0-.015625 0-.023437 0zm12.558593 5.605469h.011719zm0 0"/></g></svg>