<svg width="256" height="256" viewBox="0 0 256 256" fill="none" xmlns="http://www.w3.org/2000/svg">
<path fill-rule="evenodd" clip-rule="evenodd" d="M141.561 135.53C141.578 135.344 141.594 135.159 141.611 134.976C141.778 133.161 141.93 131.499 141.93 129.989C141.93 121.492 138.047 118.536 131.759 118.536C128.06 118.536 123.437 120.937 120.108 123.339L115.299 156.034C118.258 156.588 120.663 156.773 123.067 156.773C134.348 156.773 139.341 149.384 141.561 135.53Z" fill="#F8B001"/>
<path fill-rule="evenodd" clip-rule="evenodd" d="M128 256C198.692 256 256 198.692 256 128C256 57.3076 198.692 0 128 0C57.3076 0 0 57.3076 0 128C0 198.692 57.3076 256 128 256ZM76.8321 181.34C91.8121 183.741 104.758 184.295 116.409 184.295C155.986 184.295 178.363 159.174 178.363 122.415C178.363 100.249 166.712 90.2744 147.849 90.2744C138.971 90.2744 131.204 93.0451 123.437 98.2172L122.882 98.0325C123.441 96.2649 125.231 86.1696 128.252 67.7464C128.605 65.5952 128.975 63.3306 129.361 60.9524L93.9578 65.5137L76.8321 181.34ZM141.561 135.53C141.578 135.344 141.594 135.159 141.611 134.976C141.778 133.161 141.93 131.499 141.93 129.989C141.93 121.492 138.047 118.536 131.759 118.536C128.06 118.536 123.437 120.937 120.108 123.339L115.299 156.034C118.258 156.588 120.663 156.773 123.067 156.773C134.348 156.773 139.341 149.384 141.561 135.53Z" fill="#F8B001"/>
</svg>
