<?xml version="1.0" encoding="iso-8859-1"?>
<!-- Generator: Adobe Illustrator 19.0.0, SVG Export Plug-In . SVG Version: 6.00 Build 0)  -->
<svg version="1.1" id="Capa_1" xmlns="http://www.w3.org/2000/svg" xmlns:xlink="http://www.w3.org/1999/xlink" x="0px" y="0px"
	 viewBox="0 0 512 512" style="enable-background:new 0 0 512 512;" xml:space="preserve">
<path style="fill:#FFC850;" d="M395.252,250.176v106.777c0,10.722-8.659,19.414-19.341,19.414c-3.527,0-6.823-0.963-9.67-2.618
	v41.447c0,10.722-8.659,19.414-19.341,19.414s-19.341-8.692-19.341-19.414V308.418c0-10.722,8.659-19.414,19.341-19.414
	c3.527,0,6.823,0.963,9.67,2.618v-41.447c0-10.722,8.659-19.414,19.341-19.414S395.252,239.454,395.252,250.176z"/>
<path style="fill:#FA9E39;" d="M114.812,211.348c10.682,0,19.341,8.692,19.341,19.414v41.447c2.847-1.655,6.143-2.618,9.67-2.618
	c10.682,0,19.341,8.692,19.341,19.414v106.777c0,10.722-8.659,19.414-19.341,19.414s-19.341-8.692-19.341-19.414v-41.447
	c-2.847,1.655-6.143,2.618-9.67,2.618c-10.682,0-19.341-8.692-19.341-19.414V230.762C95.471,220.04,104.131,211.348,114.812,211.348
	z"/>
<path style="fill:#FFC850;" d="M444.845,85.629c5.145,5.17,10.035,10.499,14.673,15.973c10.623,12.538,12.197,30.509,4.091,44.837
	L263.831,499.558c-3.728,6.589-13.135,6.589-16.863,0L48.38,148.541c-8.043-14.216-6.531-32.006,3.865-44.569
	c6.602-7.979,13.734-15.662,21.403-22.998C177.935-18.79,343.011-16.688,444.845,85.629z"/>
<path style="fill:#FFDC64;" d="M277.023,476.241L96.843,157.762c-13.273-23.461-10.778-52.821,6.378-73.555
	c10.896-13.168,22.666-25.848,35.322-37.955c7.894-7.552,16.001-14.746,24.297-21.591c94.869-35.905,206.034-15.363,282.005,60.968
	c5.145,5.17,10.035,10.499,14.673,15.973c10.622,12.538,12.197,30.509,4.091,44.837L277.023,476.241z"/>
<path style="fill:#EF9F67;" d="M470.686,151.175l-2.783,4.92c-3.515,6.213-12.173,6.843-16.568,1.222
	c-1.153-1.474-2.319-2.938-3.5-4.391c-25.482-31.37-54.863-55.161-86.257-71.359c-5.171,8-14.141,13.296-24.348,13.296
	c-16.022,0-29.011-13.038-29.011-29.121c0-1.338,0.098-2.653,0.272-3.943c-36.075-8.588-73.321-8.105-109.29,1.505
	c1.693,3.698,2.645,7.809,2.645,12.145c0,16.083-12.989,29.121-29.011,29.121c-12.636,0-23.38-8.112-27.359-19.429
	c-26.886,14.956-52.199,35.599-74.715,61.991c-3.451,4.045-6.788,8.179-10.019,12.392c-4.359,5.684-13.078,5.067-16.607-1.17
	l-2.831-5.005c-8.317-14.7-6.753-33.097,3.996-46.088c6.827-8.251,14.202-16.196,22.132-23.782
	C175.273-19.686,345.977-17.513,451.283,88.293c5.32,5.346,10.377,10.857,15.173,16.517
	C477.44,117.775,479.068,136.359,470.686,151.175z"/>
<path style="fill:#DE925F;" d="M89.058,127.542c-6.276,6.138-12.386,12.661-18.298,19.591c-3.451,4.045-6.788,8.179-10.019,12.392
	c-4.359,5.684-13.078,5.067-16.607-1.17l-2.831-5.005c-8.317-14.7-6.753-33.097,3.996-46.088
	c5.46-6.599,11.288-12.992,17.453-19.173C68.383,102.053,77.32,115.297,89.058,127.542z"/>
<path style="fill:#FF507D;" d="M163.164,155.886c-16.827-10.772-31.358-24.789-42.75-41.239l0,0
	c-8.819-13.279-7.075-30.96,4.167-42.245l0,0c12.473-12.52,32.695-12.52,45.168,0l1.845,1.851c2.248,2.256,5.892,2.256,8.14,0
	l1.845-1.851c12.473-12.52,32.695-12.52,45.168,0l0,0c11.242,11.285,12.986,28.966,4.167,42.245l0,0
	c-11.391,16.45-25.922,30.467-42.75,41.239l-9.405,6.021c-1.888,1.208-4.302,1.208-6.189,0L163.164,155.886z M265.428,353.905
	c-12.473-12.52-32.695-12.52-45.168,0l-1.845,1.851c-2.248,2.256-5.892,2.256-8.14,0l-1.845-1.851
	c-12.473-12.52-32.695-12.52-45.168,0l0,0c-11.242,11.285-12.986,28.966-4.167,42.245l0,0c11.391,16.45,25.922,30.467,42.75,41.239
	l9.405,6.021c1.888,1.208,4.302,1.208,6.189,0l9.405-6.021c16.827-10.772,31.358-24.789,42.75-41.239l0,0
	C278.414,382.871,276.67,365.19,265.428,353.905L265.428,353.905z M414.493,240.152L414.493,240.152
	c-12.473-12.52-32.695-12.52-45.168,0l-1.844,1.851c-2.248,2.256-5.892,2.256-8.139,0l-1.845-1.851
	c-12.473-12.52-32.695-12.52-45.168,0l0,0c-11.242,11.285-12.986,28.966-4.167,42.245l0,0c11.391,16.45,25.922,30.467,42.75,41.239
	l9.405,6.021c1.888,1.208,4.302,1.208,6.189,0l9.405-6.021c16.827-10.772,31.358-24.789,42.75-41.239l0,0
	C427.48,269.118,425.736,251.437,414.493,240.152z"/>
<path style="fill:#F13269;" d="M163.164,155.886c-16.827-10.772-31.358-24.789-42.75-41.239c-8.819-13.279-7.075-30.96,4.167-42.245
	l0,0c9.775-9.812,24.308-11.932,36.142-6.365c-2.293,1.572-4.479,3.368-6.514,5.411l0,0c-15.926,15.986-18.397,41.034-5.903,59.845
	l0,0c7.863,11.355,16.789,21.883,26.626,31.468c-0.825-0.106-1.634-0.388-2.363-0.855L163.164,155.886z M186.988,412.796
	L186.988,412.796c-12.493-18.811-10.022-43.859,5.903-59.845l0,0c2.035-2.043,4.221-3.839,6.514-5.411
	c-11.834-5.567-26.367-3.447-36.142,6.365l0,0c-11.242,11.285-12.986,28.966-4.167,42.245c11.392,16.45,25.922,30.467,42.75,41.239
	l9.405,6.021c0.729,0.467,1.537,0.749,2.363,0.855C203.777,434.68,194.851,424.151,186.988,412.796z M336.053,299.043
	L336.053,299.043c-12.493-18.811-10.022-43.859,5.903-59.845l0,0c2.035-2.043,4.221-3.839,6.514-5.411
	c-11.834-5.567-26.367-3.447-36.142,6.365l0,0c-11.242,11.285-12.986,28.966-4.167,42.245c11.391,16.45,25.922,30.467,42.75,41.239
	l9.405,6.021c0.729,0.467,1.537,0.749,2.363,0.855C352.842,320.927,343.916,310.398,336.053,299.043z"/>
<path style="fill:#FA9E39;" d="M250.197,279.297c0,10.722-8.659,19.414-19.341,19.414s-19.341-8.692-19.341-19.414
	s8.659-19.414,19.341-19.414S250.197,268.575,250.197,279.297z M172.834,201.641c-10.682,0-19.341,8.692-19.341,19.414
	s8.659,19.414,19.341,19.414s19.341-8.692,19.341-19.414S183.516,201.641,172.834,201.641z M356.57,143.398
	c-10.682,0-19.341,8.692-19.341,19.414s8.659,19.414,19.341,19.414s19.341-8.692,19.341-19.414S367.252,143.398,356.57,143.398z
	 M269.537,143.398c-16.022,0-29.011,13.038-29.011,29.121s12.989,29.121,29.011,29.121s29.011-13.038,29.011-29.121
	S285.56,143.398,269.537,143.398z"/>
<path d="M202.483,279.313c0,14.839,12.338,26.912,27.503,26.912s27.503-12.073,27.503-26.912s-12.338-26.912-27.503-26.912
	S202.483,264.473,202.483,279.313z M242.487,279.313c0,6.569-5.608,11.913-12.501,11.913s-12.501-5.344-12.501-11.913
	s5.608-11.913,12.501-11.913S242.487,272.744,242.487,279.313z M169.98,194.162c-15.165,0-27.503,12.073-27.503,26.912
	s12.338,26.912,27.503,26.912s27.503-12.073,27.503-26.912C197.482,206.235,185.144,194.162,169.98,194.162z M169.98,232.988
	c-6.893,0-12.501-5.344-12.501-11.913s5.608-11.913,12.501-11.913s12.501,5.344,12.501,11.913
	C182.481,227.643,176.873,232.988,169.98,232.988z M359.998,189.749c15.165,0,27.503-12.073,27.503-26.912
	s-12.338-26.912-27.503-26.912s-27.503,12.073-27.503,26.912S344.833,189.749,359.998,189.749z M359.998,150.923
	c6.893,0,12.501,5.344,12.501,11.913s-5.608,11.913-12.501,11.913s-12.501-5.344-12.501-11.913S353.105,150.923,359.998,150.923z
	 M307.493,172.543c0-20.191-16.824-36.619-37.504-36.619s-37.504,16.427-37.504,36.619s16.824,36.619,37.504,36.619
	C290.669,209.161,307.493,192.734,307.493,172.543z M247.487,172.543c0-11.921,10.095-21.62,22.502-21.62s22.502,9.699,22.502,21.62
	c0,11.921-10.095,21.62-22.502,21.62C257.582,194.162,247.487,184.464,247.487,172.543z M479.281,99.895
	c-5.105-5.826-10.523-11.529-16.105-16.953c-16.225-15.761-34.291-29.619-53.698-41.188c-3.559-2.121-8.162-0.956-10.283,2.601
	c-2.122,3.557-0.957,8.161,2.601,10.282c18.403,10.972,35.537,24.115,50.925,39.063c5.294,5.145,10.435,10.555,15.276,16.08
	c9.169,10.463,10.593,25.587,3.543,37.633l-2.879,4.92c-0.63,1.076-1.692,1.309-2.268,1.353c-0.487,0.036-1.697,0.006-2.561-1.061
	c-1.222-1.51-2.457-3.01-3.707-4.498c-26.433-31.464-57.253-56.106-91.6-73.241c-3.382-1.688-7.486-0.596-9.585,2.543
	c-4.17,6.238-11.252,9.963-18.944,9.963c-12.407,0-22.502-9.699-22.502-21.62c0-0.932,0.07-1.91,0.21-2.909
	c0.536-3.849-1.958-7.471-5.747-8.343c-22.598-5.201-45.724-7.187-68.739-5.903c-4.136,0.231-7.301,3.77-7.071,7.906
	s3.777,7.298,7.907,7.07c19.558-1.092,39.206,0.334,58.497,4.238c1.098,19.237,17.473,34.56,37.445,34.56
	c10.39,0,20.133-4.152,27.146-11.353c30.375,16.064,57.768,38.492,81.497,66.737c1.191,1.417,2.367,2.846,3.53,4.282
	c0.136,0.168,0.292,0.315,0.433,0.477l-37.984,64.915c-15.134-7.329-34.051-4.89-46.654,7.341l-0.892,0.866l-0.892-0.866
	c-15.758-15.293-41.4-15.295-57.161,0c-14.219,13.799-16.434,35.613-5.269,51.869c0.028,0.041,0.057,0.081,0.085,0.121
	c12.423,17.345,28.021,31.895,46.361,43.247l9.727,6.021c2.171,1.344,4.661,2.016,7.149,2.016s4.977-0.672,7.147-2.016l9.727-6.021
	c2.924-1.81,5.771-3.71,8.554-5.681v32.619c0,6.569-5.608,11.913-12.501,11.913c-2.242,0-4.371-0.557-6.325-1.656
	c-2.323-1.307-5.165-1.282-7.464,0.063c-2.3,1.345-3.713,3.809-3.713,6.473v41.444c0,6.569-5.608,11.913-12.501,11.913
	s-12.501-5.344-12.501-11.913v-26.247l13.373-22.855c2.092-3.575,0.889-8.168-2.687-10.26c-3.574-2.09-8.169-0.89-10.262,2.686
	l-80.307,137.246c-0.626,1.069-1.675,1.229-2.244,1.229c-0.57,0-1.62-0.16-2.246-1.229l-28.542-48.779l5.205-3.222
	c18.341-11.351,33.939-25.902,46.362-43.247c0.028-0.04,0.057-0.081,0.085-0.121c11.165-16.255,8.949-38.069-5.269-51.868l0,0
	c-15.759-15.294-41.4-15.294-57.162,0l-0.892,0.866l-0.892-0.866c-15.759-15.294-41.401-15.293-57.161,0
	c-14.218,13.799-16.434,35.613-5.269,51.868c0.028,0.041,0.057,0.081,0.085,0.121c0.337,0.47,0.685,0.93,1.026,1.396
	c-2.238,3.56-6.273,5.782-10.723,5.782c-6.893,0-12.501-5.344-12.501-11.913v-41.444c0-2.664-1.413-5.128-3.713-6.473
	c-2.3-1.346-5.141-1.37-7.464-0.063c-1.954,1.099-4.082,1.656-6.325,1.656c-6.893,0-12.501-5.344-12.501-11.913v-78.084
	l40.158,68.631c1.396,2.385,3.904,3.714,6.481,3.714c1.286,0,2.59-0.331,3.781-1.027c3.576-2.092,4.779-6.685,2.687-10.26
	l-91.13-155.743c0.163-0.189,0.327-0.377,0.482-0.574c3.291-4.15,6.692-8.218,10.108-12.09
	c11.719-13.281,24.439-25.316,37.874-35.858c0.521,0.9,1.072,1.788,1.67,2.658c0.028,0.041,0.057,0.081,0.085,0.121
	c12.423,17.345,28.021,31.895,46.361,43.247l9.727,6.021c2.171,1.344,4.66,2.016,7.148,2.016c2.489,0,4.978-0.672,7.15-2.016
	l9.726-6.021c18.341-11.351,33.939-25.902,46.362-43.247c0.028-0.04,0.057-0.081,0.085-0.121
	c11.165-16.255,8.949-38.069-5.269-51.869l0,0c-15.759-15.294-41.4-15.294-57.162,0l-0.892,0.866l-0.892-0.866
	c-15.76-15.294-41.402-15.293-57.161,0c-9.465,9.186-13.603,21.923-12.024,34.208c-15.697,11.852-30.512,25.608-44.038,40.938
	c-3.589,4.068-7.161,8.339-10.613,12.693c-0.842,1.061-2.047,1.098-2.531,1.062c-0.584-0.041-1.658-0.273-2.294-1.36l-2.928-5.005
	c-6.964-11.9-5.614-26.939,3.359-37.422c6.921-8.088,14.417-15.877,22.281-23.151c82.387-76.202,202.621-95.675,306.304-49.61
	c3.786,1.682,8.218-0.023,9.9-3.808s-0.022-8.217-3.808-9.899C326.036,2.405,268.099-5.257,210.912,3.546
	C152.42,12.547,98.81,38.294,55.879,78.003c-8.291,7.668-16.195,15.881-23.493,24.41c-13.124,15.335-15.097,37.337-4.909,54.748
	l2.928,5.005c2.96,5.059,8.263,8.329,14.185,8.748c0.364,0.026,0.727,0.034,1.09,0.038l36.831,62.945
	c-0.026,0.253-0.039,0.51-0.039,0.769v102.885c0,14.839,12.338,26.912,27.503,26.912c0.836,0,1.67-0.038,2.5-0.113v31.439
	c0,14.839,12.338,26.912,27.503,26.912c7.916,0,15.25-3.313,20.371-8.845c10.316,11.577,22.263,21.606,35.686,29.914l9.727,6.021
	c1.261,0.781,2.631,1.328,4.044,1.655l30.368,51.9c3.171,5.419,8.851,8.654,15.195,8.654c6.343,0,12.023-3.236,15.193-8.654
	l51.933-88.754v0.61c0,14.839,12.338,26.912,27.503,26.912s27.503-12.073,27.503-26.912v-31.439c0.83,0.075,1.664,0.113,2.5,0.113
	c15.165,0,27.503-12.073,27.503-26.912v-44.635c8.478-7.664,16.108-16.197,22.807-25.55c0.028-0.04,0.057-0.081,0.085-0.121
	c10.729-15.62,9.095-36.367-3.662-50.209l39.651-67.763c0.379-0.005,0.759-0.015,1.14-0.043c5.879-0.443,11.147-3.709,14.087-8.735
	l2.879-4.92C494.804,137.36,492.711,115.221,479.281,99.895z M125.302,77.812c9.997-9.702,26.266-9.703,36.263,0l1.907,1.851
	c5.203,5.049,13.667,5.048,18.868,0l1.906-1.851c10-9.704,26.266-9.702,36.264,0c8.936,8.674,10.356,22.356,3.39,32.559
	c-11.256,15.698-25.391,28.874-42.016,39.162l-8.978,5.558l-8.98-5.558c-16.624-10.289-30.759-23.465-42.015-39.162
	C114.945,100.168,116.365,86.486,125.302,77.812z M203.93,431.018c-16.624-10.289-30.759-23.465-42.015-39.162
	c-6.966-10.202-5.546-23.885,3.39-32.558c9.997-9.702,26.266-9.704,36.263,0l1.907,1.851c5.203,5.049,13.667,5.048,18.868,0
	l1.906-1.851c10-9.704,26.266-9.702,36.264,0l0,0c8.936,8.674,10.356,22.356,3.39,32.559
	c-11.256,15.698-25.391,28.874-42.016,39.162l-8.978,5.558L203.93,431.018z M418.067,278.11
	c-11.256,15.698-25.391,28.874-42.015,39.162l-8.98,5.558l-8.979-5.558c-16.624-10.289-30.759-23.465-42.015-39.162
	c-6.967-10.203-5.546-23.885,3.39-32.558c9.998-9.702,26.267-9.704,36.263,0l1.908,1.852c5.202,5.048,13.663,5.047,18.867,0
	l1.906-1.851c10-9.704,26.266-9.703,36.264,0l0,0C423.613,254.225,425.033,267.908,418.067,278.11z"/>
<g>
</g>
<g>
</g>
<g>
</g>
<g>
</g>
<g>
</g>
<g>
</g>
<g>
</g>
<g>
</g>
<g>
</g>
<g>
</g>
<g>
</g>
<g>
</g>
<g>
</g>
<g>
</g>
<g>
</g>
</svg>
