<?xml version="1.0" encoding="iso-8859-1"?>
<!-- Generator: Adobe Illustrator 19.0.0, SVG Export Plug-In . SVG Version: 6.00 Build 0)  -->
<svg version="1.1" id="Capa_1" xmlns="http://www.w3.org/2000/svg" xmlns:xlink="http://www.w3.org/1999/xlink" x="0px" y="0px"
	 viewBox="0 0 512.007 512.007" style="enable-background:new 0 0 512.007 512.007;" xml:space="preserve">
<g>
	<g>
		<path d="M66.817,445.258c-0.101-0.101-0.238-0.128-0.329-0.219c-4.672-4.471-9.179-9.262-13.604-14.189
			c-1.307-1.435-2.587-2.898-3.858-4.361c-2.533-2.953-5.001-5.988-7.442-9.088c-4.105-5.138-7.991-10.432-11.721-15.863
			c-0.375-0.539-0.759-1.042-1.134-1.582c-0.027-0.046-0.037-0.101-0.064-0.146c-4.16-6.144-8.046-12.461-11.693-18.944
			l-14.007,5.796c24.685,53.759,68.589,97.671,122.357,122.357l7.241-17.49C108.499,479.351,86.264,463.809,66.817,445.258z"/>
	</g>
</g>
<g>
	<g>
		<path d="M171.849,316.767l-13.175,5.449l-8.238,3.41c0.32,3.273,0.485,6.519,0.485,9.71c0,6.976-0.686,13.787-2.039,20.388
			c13.851-3.209,24.21-15.661,24.21-30.491C173.092,322.371,172.681,319.537,171.849,316.767z"/>
	</g>
</g>
<g>
	<g>
		<path d="M188.708,309.8c1.701,5.001,2.67,10.148,2.67,15.442c0,27.355-22.253,49.599-49.599,49.599
			c-2.103,0-4.16-0.165-6.199-0.421c-2.743-0.347-5.184-1.92-6.638-4.279c-1.454-2.359-1.755-5.248-0.823-7.854
			c2.999-8.411,4.516-17.481,4.516-26.925c0-0.759-0.082-1.545-0.101-2.304l-98.732,40.859c2.496,4.352,5.202,8.567,7.954,12.763
			c5.55,1.317,11.236,2.185,16.996,2.331c16.1,0.329,31.689-3.822,42.76-11.575c2.341-1.637,5.312-2.085,8.036-1.216
			c2.715,0.869,4.873,2.962,5.824,5.659c2.039,5.76,2.999,11.73,2.853,17.719c-0.457,18.551-11.3,34.761-27.117,42.815
			c14.848,12.544,31.039,23.478,48.383,32.374l72.2-174.488L188.708,309.8z"/>
	</g>
</g>
<g>
	<g>
		<path d="M58.287,407.27c-0.521-0.009-1.051-0.027-1.573-0.046c0.384,0.475,0.777,0.905,1.161,1.371
			c2.715,3.319,5.422,6.647,8.302,9.819c0.475,0.53,0.978,1.015,1.463,1.545c2.725,2.962,5.568,5.806,8.42,8.64
			c13.504-3.291,23.478-15.232,23.872-29.348C87.635,404.839,73.29,407.691,58.287,407.27z"/>
	</g>
</g>
<g>
	<g>
		<path d="M204.442,113.973c-0.009-6.967,0.667-13.778,2.03-20.379c-13.86,3.227-24.21,15.68-24.21,30.5
			c0,17.234,13.997,31.259,31.222,31.314C207.597,143.257,204.442,128.967,204.442,113.973z"/>
	</g>
</g>
<g>
	<g>
		<path d="M411.195,100.853c-45.009-45.028-107.417-68.278-171.243-63.715C137.253,44.434,52.6,123.692,38.667,225.587
			c-4.224,30.957-2.048,61.558,6.491,91.125l198.991-82.339c9.755-4.041,20.461-1.911,27.931,5.559
			c4.69,4.69,7.259,10.651,7.543,16.859c0.192,3.721-0.448,7.524-1.957,11.2L195.72,466.945
			c29.421,8.439,59.866,10.587,90.668,6.391c101.886-13.906,181.153-98.531,188.477-201.222
			C479.418,208.307,456.214,145.881,411.195,100.853z M103.269,139.81l18.285-18.285c3.566-3.575,9.362-3.575,12.928,0
			c3.575,3.575,3.575,9.353,0,12.928l-18.285,18.285c-1.783,1.783-4.123,2.679-6.464,2.679s-4.681-0.896-6.464-2.679
			C99.704,149.163,99.704,143.376,103.269,139.81z M171.739,203.315c-0.677,26.953-22.802,48.401-49.59,48.411
			c-0.411,0-0.814,0-1.225-0.018c-27.346-0.667-49.041-23.46-48.374-50.806c0.055-2.094,0.265-4.151,0.567-6.171
			c0.411-2.743,2.048-5.147,4.443-6.537c2.386-1.408,5.294-1.646,7.881-0.64c8.338,3.2,17.353,4.946,26.816,5.175
			c16.164,0.347,31.689-3.822,42.76-11.575c2.35-1.646,5.312-2.094,8.036-1.216c2.725,0.869,4.882,2.962,5.833,5.659
			C170.925,191.357,171.885,197.327,171.739,203.315z M236.743,164.45c-0.805,2.743-2.853,4.955-5.522,5.97
			c-5.714,2.176-11.657,3.282-17.655,3.282c-27.346,0-49.599-22.253-49.599-49.599c0-27.346,22.253-49.599,49.599-49.599
			c2.094,0,4.151,0.165,6.171,0.421c2.752,0.338,5.202,1.911,6.656,4.27c1.454,2.359,1.765,5.248,0.832,7.863
			c-2.999,8.411-4.516,17.481-4.516,26.925c0,16.119,4.599,31.597,12.617,42.468C237.027,158.745,237.548,161.707,236.743,164.45z
			 M395.835,176.381l18.285-18.285c3.566-3.575,9.362-3.575,12.928,0c3.575,3.575,3.575,9.353,0,12.928l-18.285,18.285
			c-1.783,1.783-4.123,2.679-6.464,2.679s-4.681-0.896-6.464-2.679C392.27,185.734,392.27,179.947,395.835,176.381z M287.851,110.17
			c2.395-1.399,5.284-1.637,7.881-0.631c8.338,3.2,17.353,4.946,26.806,5.175c16.091,0.357,31.689-3.822,42.76-11.565
			c2.341-1.637,5.321-2.085,8.027-1.216c2.715,0.869,4.882,2.962,5.833,5.659c2.039,5.76,2.999,11.73,2.853,17.728
			c-0.329,13.248-5.787,25.572-15.387,34.706c-9.298,8.85-21.385,13.677-34.166,13.677c-0.421,0-0.832,0-1.253-0.018
			c-13.239-0.329-25.563-5.787-34.706-15.387c-9.134-9.591-13.988-22.171-13.659-35.419c0.046-2.094,0.265-4.151,0.567-6.171
			C283.828,113.973,285.456,111.568,287.851,110.17z M256.016,91.418c-2.341,0-4.681-0.896-6.464-2.679
			c-3.575-3.575-3.575-9.353,0-12.928l18.285-18.285c3.566-3.575,9.362-3.575,12.928,0c3.575,3.575,3.575,9.353,0,12.928
			L262.48,88.739C260.697,90.522,258.357,91.418,256.016,91.418z M280.766,408.733l-18.285,18.285
			c-1.783,1.783-4.123,2.679-6.464,2.679c-2.341,0-4.681-0.896-6.464-2.679c-3.575-3.575-3.575-9.353,0-12.928l18.285-18.285
			c3.566-3.575,9.362-3.575,12.928,0C284.34,399.38,284.34,405.159,280.766,408.733z M280.766,216.737
			c-1.783,1.783-4.123,2.679-6.464,2.679s-4.681-0.896-6.464-2.679c-3.575-3.575-3.575-9.353,0-12.928l18.285-18.285
			c3.566-3.575,9.362-3.575,12.928,0c3.575,3.575,3.575,9.353,0,12.928L280.766,216.737z M295.266,295.236l18.285-18.285
			c3.566-3.575,9.362-3.575,12.928,0c3.575,3.575,3.575,9.353,0,12.928l-18.285,18.285c-1.783,1.783-4.123,2.679-6.464,2.679
			s-4.681-0.896-6.464-2.679C291.7,304.589,291.7,298.802,295.266,295.236z M324.65,429.698c-2.094,0-4.142-0.165-6.171-0.421
			c-2.752-0.338-5.202-1.911-6.656-4.27c-1.454-2.359-1.755-5.248-0.832-7.863c2.999-8.411,4.516-17.481,4.516-26.925
			c0-16.119-4.599-31.597-12.608-42.468c-1.701-2.295-2.222-5.257-1.417-8c0.805-2.743,2.852-4.955,5.522-5.97
			c5.714-2.176,11.657-3.282,17.655-3.282c27.355,0,49.599,22.253,49.599,49.599S352.005,429.698,324.65,429.698z M427.049,317.306
			l-18.285,18.285c-1.783,1.783-4.123,2.679-6.464,2.679s-4.681-0.896-6.464-2.679c-3.575-3.575-3.575-9.353,0-12.928l18.285-18.285
			c3.566-3.575,9.362-3.575,12.928,0C430.623,307.944,430.623,313.732,427.049,317.306z M446.011,234.09
			c-0.658,26.925-22.784,48.383-49.572,48.383c-0.411,0-0.814,0-1.225-0.018c-27.346-0.667-49.041-23.46-48.374-50.806
			c0.046-2.094,0.265-4.142,0.567-6.171c0.411-2.743,2.048-5.147,4.443-6.537c2.386-1.399,5.294-1.637,7.881-0.64
			c8.338,3.2,17.353,4.946,26.815,5.175c16.137,0.283,31.689-3.813,42.751-11.556c2.341-1.637,5.321-2.094,8.027-1.216
			c2.715,0.869,4.882,2.962,5.833,5.659C445.197,222.122,446.157,228.092,446.011,234.09z"/>
	</g>
</g>
<g>
	<g>
		<path d="M111.799,211.004c-6.976-0.165-13.778-1.015-20.333-2.533c2.88,13.933,15.076,24.594,29.906,24.96
			c17.088,0.219,31.588-13.229,32.073-30.445C141.147,208.572,126.793,211.361,111.799,211.004z"/>
	</g>
</g>
<g>
	<g>
		<path d="M324.751,348.776c5.888,12.151,9.042,26.441,9.042,41.435c0,6.976-0.686,13.787-2.039,20.388
			c13.86-3.227,24.21-15.68,24.21-30.5C355.964,362.855,341.976,348.83,324.751,348.776z"/>
	</g>
</g>
<g>
	<g>
		<path d="M386.099,241.76c-6.976-0.174-13.769-1.024-20.333-2.542c2.88,13.952,15.076,24.603,29.897,24.969
			c17.033,0.347,31.597-13.23,32.073-30.445C415.447,239.328,401.083,242.172,386.099,241.76z"/>
	</g>
</g>
<g>
	<g>
		<path d="M322.1,132.99c-6.976-0.174-13.778-1.015-20.342-2.533c1.161,5.687,3.895,10.935,8,15.241
			c5.76,6.052,13.54,9.499,21.906,9.71c8.375,0.146,16.311-2.853,22.363-8.631c6.034-5.742,9.481-13.486,9.71-21.805
			C351.448,130.549,337.057,133.355,322.1,132.99z"/>
	</g>
</g>
<g>
	<g>
		<path d="M436.813,74.742C380.787,18.852,303.202-7.689,223.935,1.938C108.874,15.899,17.767,106,2.371,221.043
			c-5.065,37.814-1.984,75.043,9.143,110.81l17.06-7.14c-9.975-32.941-12.736-67.08-8.009-101.612
			C35.659,112.675,127.388,26.797,238.663,18.889c69.11-4.891,136.702,20.251,185.469,69.027
			c48.767,48.776,73.9,116.387,68.972,185.496c-7.945,111.267-93.841,202.968-204.248,218.035
			c-11.044,1.509-22.061,2.267-32.987,2.267c-22.738,0-45.156-3.447-67.08-9.929l-7.067,17.179
			c35.675,10.862,72.73,13.723,110.288,8.53c114.787-15.881,204.486-107.207,218.136-222.085
			C519.564,208.143,492.84,130.631,436.813,74.742z"/>
	</g>
</g>
<g>
</g>
<g>
</g>
<g>
</g>
<g>
</g>
<g>
</g>
<g>
</g>
<g>
</g>
<g>
</g>
<g>
</g>
<g>
</g>
<g>
</g>
<g>
</g>
<g>
</g>
<g>
</g>
<g>
</g>
</svg>
